<?xml version="1.0" standalone="no"?><svg xmlns="http://www.w3.org/2000/svg" viewBox="0 0 1440 320"><path fill="#ffa500" fill-opacity="1" d="M0,64L10.4,85.3C20.9,107,42,149,63,160C83.5,171,104,149,125,138.7C146.1,128,167,128,188,149.3C208.7,171,230,213,250,229.3C271.3,245,292,235,313,192C333.9,149,355,75,376,85.3C396.5,96,417,192,438,224C459.1,256,480,224,501,181.3C521.7,139,543,85,563,90.7C584.3,96,605,160,626,165.3C647,171,668,117,689,128C709.6,139,730,213,751,213.3C772.2,213,793,139,814,138.7C834.8,139,856,213,877,250.7C897.4,288,918,288,939,266.7C960,245,981,203,1002,160C1022.6,117,1043,75,1064,101.3C1085.2,128,1106,224,1127,256C1147.8,288,1169,256,1190,208C1210.4,160,1231,96,1252,101.3C1273,107,1294,181,1315,197.3C1335.7,213,1357,171,1377,176C1398.3,181,1419,235,1430,261.3L1440,288L1440,0L1429.6,0C1419.1,0,1398,0,1377,0C1356.5,0,1336,0,1315,0C1293.9,0,1273,0,1252,0C1231.3,0,1210,0,1190,0C1168.7,0,1148,0,1127,0C1106.1,0,1085,0,1064,0C1043.5,0,1023,0,1002,0C980.9,0,960,0,939,0C918.3,0,897,0,877,0C855.7,0,835,0,814,0C793,0,772,0,751,0C730.4,0,710,0,689,0C667.8,0,647,0,626,0C605.2,0,584,0,563,0C542.6,0,522,0,501,0C480,0,459,0,438,0C417.4,0,397,0,376,0C354.8,0,334,0,313,0C292.2,0,271,0,250,0C229.6,0,209,0,188,0C167,0,146,0,125,0C104.3,0,83,0,63,0C41.7,0,21,0,10,0L0,0Z" data-darkreader-inline-fill="" style="--darkreader-inline-fill:#007ad0;"></path></svg>